<?xml version="1.0" encoding="utf-8"?>
<!-- Generator: Adobe Illustrator 21.1.0, SVG Export Plug-In . SVG Version: 6.00 Build 0)  -->
<svg version="1.1" id="Layer_1" xmlns="http://www.w3.org/2000/svg" xmlns:xlink="http://www.w3.org/1999/xlink" x="0px" y="0px"
	 viewBox="0 0 1452.7 711.1" style="enable-background:new 0 0 1452.7 711.1;" xml:space="preserve">
<style type="text/css">
	.st0{opacity:0.5;}
	.st1{opacity:0.79;fill:url(#XMLID_2_);}
	.st2{opacity:0.79;fill:url(#XMLID_3_);}
	.st3{opacity:0.79;fill:url(#XMLID_4_);}
	.st4{fill:#BBBBBB;}
	.st5{fill:#FFFFFF;}
</style>
<title>the-esthetique-logo</title>
<g id="XMLID_388_" class="st0">
	
		<linearGradient id="XMLID_2_" gradientUnits="userSpaceOnUse" x1="1234.0752" y1="106.416" x2="569.7697" y2="1197.775" gradientTransform="matrix(0.9709 -0.2395 0.2395 0.9709 -54.7502 167.6756)">
		<stop  offset="5.102041e-03" style="stop-color:#FFFFFF"/>
		<stop  offset="0.4005" style="stop-color:#F7A01D"/>
		<stop  offset="0.4115" style="stop-color:#F69A1D"/>
		<stop  offset="0.4937" style="stop-color:#F37520"/>
		<stop  offset="0.5798" style="stop-color:#EF5723"/>
		<stop  offset="0.6697" style="stop-color:#ED3F25"/>
		<stop  offset="0.765" style="stop-color:#EB2E26"/>
		<stop  offset="0.8693" style="stop-color:#EA2427"/>
		<stop  offset="1" style="stop-color:#EA2127"/>
	</linearGradient>
	<path id="XMLID_391_" class="st1" d="M610.2,676.3c0,0-18.3-246.7,519.1-315.9c247.2-23.5,286.4-123.5,322.7-187.6
		C1322.8,487.3,1297.4,637.5,947.9,619C598.4,600.4,620.2,648.7,610.2,676.3z"/>
	
		<linearGradient id="XMLID_3_" gradientUnits="userSpaceOnUse" x1="1155.6617" y1="58.6861" x2="491.3562" y2="1150.0452" gradientTransform="matrix(0.9709 -0.2395 0.2395 0.9709 -54.7502 167.6756)">
		<stop  offset="5.102041e-03" style="stop-color:#FFFFFF"/>
		<stop  offset="0.4005" style="stop-color:#F7A01D"/>
		<stop  offset="0.4115" style="stop-color:#F69A1D"/>
		<stop  offset="0.4937" style="stop-color:#F37520"/>
		<stop  offset="0.5798" style="stop-color:#EF5723"/>
		<stop  offset="0.6697" style="stop-color:#ED3F25"/>
		<stop  offset="0.765" style="stop-color:#EB2E26"/>
		<stop  offset="0.8693" style="stop-color:#EA2427"/>
		<stop  offset="1" style="stop-color:#EA2127"/>
	</linearGradient>
	<path id="XMLID_390_" class="st2" d="M601.4,688.4c0,0,18.1-344.4,464.1-493.4c157-56.7,169.6-53.1,225.1-100.1
		c-93.7,103.3-115.3,145.4-128.3,208.8c-13,63.5-71.8,213.5-360.5,238.7C678.8,553.1,601.4,688.4,601.4,688.4z"/>
	
		<linearGradient id="XMLID_4_" gradientUnits="userSpaceOnUse" x1="1032.7156" y1="-16.1507" x2="368.4101" y2="1075.2084" gradientTransform="matrix(0.9709 -0.2395 0.2395 0.9709 -54.7502 167.6756)">
		<stop  offset="5.102041e-03" style="stop-color:#FFFFFF"/>
		<stop  offset="0.4005" style="stop-color:#F7A01D"/>
		<stop  offset="0.4115" style="stop-color:#F69A1D"/>
		<stop  offset="0.4937" style="stop-color:#F37520"/>
		<stop  offset="0.5798" style="stop-color:#EF5723"/>
		<stop  offset="0.6697" style="stop-color:#ED3F25"/>
		<stop  offset="0.765" style="stop-color:#EB2E26"/>
		<stop  offset="0.8693" style="stop-color:#EA2427"/>
		<stop  offset="1" style="stop-color:#EA2127"/>
	</linearGradient>
	<path id="XMLID_389_" class="st3" d="M592.2,705.7c0,0-14.6-135.4-26.9-268.1C553.3,307,723.6,22.2,1138,4.8
		c-87.1,54.8-102.1,267.8-307.6,379.9S592.2,705.7,592.2,705.7z"/>
</g>
<g>
	<path class="st4" d="M19.8,307.6H9v-96.2H62v2H19.8V307.6z M26.6,259.5v-2h28.5v2H26.6z M26.6,307.6v-2H62v2H26.6z"/>
	<path class="st4" d="M113.5,269.5l18.4-24.1h2.6l-19.8,25.9l26.7,36.4h-11.7l-45.6-62.2h11.6L113.5,269.5z M84.3,307.6l18.8-24.7
		l1.3,1.8l-17.6,23H84.3z"/>
	<path class="st4" d="M177,340.1h-9.9v-94.7h9.9v10.2c3.8-7.1,10.2-11.4,19.9-11.4c16.3,0,28.6,14.5,28.6,32.1
		c0,17.6-12.3,32.3-28.6,32.3c-5.4,0-9.7-1.3-13.1-3.6v-3.8c2.9,3.4,6.9,5.5,12.1,5.5c13.6,0,19.3-14.1,19.3-30.3
		c0-16.3-5.7-30.1-19.3-30.1S177,260,177,276.3V340.1z"/>
	<path class="st4" d="M261.1,276.5c0,14.2,4.4,30.1,20.9,30.1c14.1,0,19.8-11.9,19.8-11.9v5.4c0,0-6.3,8.5-20.8,8.5
		c-19.2,0-30.3-15.1-30.3-32.1c0-18,11.7-32.3,28.6-32.3c16.3,0,26.3,13.3,27.1,30.2H268v-2h28.1c-0.9-14.1-4.2-26.2-16.7-26.2
		C266.8,246.2,261.1,259.2,261.1,276.5z"/>
	<path class="st4" d="M367.5,250.7c-15.6,0-22.8,13-22.8,29.8v27.1h-9.9v-62.2h9.9v22.1c0.9-5,2.8-10.4,6.6-15.2
		c3.5-4.3,8.9-8.2,16.2-8.2V250.7z"/>
	<path class="st4" d="M400.8,220.9c3.2,0,5.8,2.6,5.8,5.8c0,3.2-2.6,5.8-5.8,5.8c-3.2,0-5.8-2.6-5.8-5.8
		C395,223.5,397.6,220.9,400.8,220.9z M395.8,245.4h9.9v62.2h-9.9V245.4z"/>
	<path class="st4" d="M445.4,276.5c0,14.2,4.4,30.1,20.9,30.1c14.1,0,19.8-11.9,19.8-11.9v5.4c0,0-6.3,8.5-20.8,8.5
		c-19.2,0-30.3-15.1-30.3-32.1c0-18,11.7-32.3,28.6-32.3c16.3,0,26.3,13.3,27.1,30.2h-38.5v-2h28.1c-0.9-14.1-4.2-26.2-16.7-26.2
		C451,246.2,445.4,259.2,445.4,276.5z"/>
	<path class="st4" d="M528.9,307.6H519v-62.2h9.9V307.6z M561.5,268c0-9.1-0.2-21.8-12.4-21.8c-5.9,0-10.3,3-13.4,7.4v-2.7
		c3.3-3.8,8-6.7,15-6.7c12.8,0,20.7,9.4,20.7,23.7v39.7h-9.9V268z"/>
	<path class="st4" d="M649.6,255.3c0,0-5.5-9.1-19.1-9.1c-14.5,0-20.8,14.1-20.8,30.3c0,10.1,2.6,18.7,7.7,24.1l-1.4,4.5
		c-9.9-5.1-16.6-15.3-16.6-28.6c0-18,13.3-32.3,31.1-32.3c12.8,0,19.1,5.7,19.1,5.7V255.3z M623.1,307.6l0.9-2.6
		c2.5,1,5.2,1.6,8.4,1.6c13.3,0,18.7-9.7,18.7-9.7v5.5c0,0-6.6,6.2-19.8,6.2C628.4,308.6,625.7,308.3,623.1,307.6z"/>
	<path class="st4" d="M685.4,276.5c0,14.2,4.4,30.1,20.9,30.1c14.1,0,19.8-11.9,19.8-11.9v5.4c0,0-6.3,8.5-20.8,8.5
		c-19.2,0-30.3-15.1-30.3-32.1c0-18,11.7-32.3,28.6-32.3c16.3,0,26.3,13.3,27.1,30.2h-38.5v-2h28.1c-0.9-14.1-4.2-26.2-16.7-26.2
		C691.1,246.2,685.4,259.2,685.4,276.5z"/>
	<path class="st4" d="M39.2,472.8l-1.1,3.4c-18.9-7.2-32.2-24.9-32.2-46.6c0-28.3,22.7-50,50.9-50c12,0,23.3,3,31.7,7.9v5
		c-7.9-7.1-19.8-11-31.7-11c-21.9,0-39,19.8-39,48C17.8,449.6,26.4,465.4,39.2,472.8z M83.1,471.2v-42.7h10.7V469
		c-9,6.4-21.2,10.6-37,10.6c-4,0-7.8-0.4-11.5-1.3l0.8-2.3c3.4,1.1,6.9,1.6,10.7,1.6C68.8,477.6,76.6,475.1,83.1,471.2z"/>
	<path class="st4" d="M126.4,381.5h9.9v96.2h-9.9V381.5z"/>
	<path class="st4" d="M214.6,446.7c0-16.2-5.7-30.5-19.3-30.5c-13.7,0-19.3,14.2-19.3,30.5c0,10.3,2.2,19.6,7.3,25l-1.2,3.8
		c-9.9-5-16.4-15.9-16.4-28.8c0-18,12.7-32.5,29.6-32.5s29.6,14.5,29.6,32.5c0,18.1-12.7,32-29.6,32c-2.1,0-4.1-0.2-6-0.6l0.6-2.1
		c1.6,0.6,3.4,0.8,5.4,0.8C208.8,476.7,214.6,463,214.6,446.7z"/>
	<path class="st4" d="M254,415.5l19.8,51.6l-5.5,12.1l-24.5-63.7H254z M277.6,458.4l-1.1-2.8l18.8-41.7l24.7,52.9l-4.7,12.3
		l-24-51.3L277.6,458.4z M323.5,458.1l-1.2-2.6l15.4-40.1h2.2L323.5,458.1z"/>
	<path class="st4" d="M372.7,391c3.2,0,5.8,2.6,5.8,5.8c0,3.2-2.6,5.8-5.8,5.8c-3.2,0-5.8-2.6-5.8-5.8
		C366.9,393.6,369.5,391,372.7,391z M367.7,415.5h9.9v62.2h-9.9V415.5z"/>
	<path class="st4" d="M420,477.7h-9.9v-62.2h9.9V477.7z M452.6,438c0-9.1-0.2-21.8-12.4-21.8c-5.9,0-10.3,3-13.4,7.4v-2.7
		c3.3-3.8,8-6.7,15-6.7c12.8,0,20.7,9.4,20.7,23.7v39.7h-9.9V438z"/>
	<path class="st4" d="M521.2,463c-6.5,1-19.6,2.3-19.6,6.7c0,8.4,50.4,4.9,50.4,24.2c0,10-15.2,17.3-32.3,17.3s-32.3-7.3-32.3-17.3
		c0-5,3.8-9.4,9.8-12.4l6.2,1.5c-3.8,2.7-6.3,6.2-6.3,10.9c0,8.9,9.4,15.3,22.7,15.3c13.3,0,22.7-6.4,22.7-15.3
		c0-20.2-50-13-50-24.1c0-3.2,4.3-5.9,20.8-7.2c-12-2.3-20.5-11.7-20.5-23.9c0-14.1,11.5-24.4,26.6-24.4c1.3,0,2.5,0.1,3.8,0.2
		l-0.6,2c-1-0.1-2.1-0.2-3.1-0.2c-12.2,0-16.5,10.4-16.5,22.5c0,12,4.3,22.5,16.5,22.5c12.3,0,16.7-10.4,16.7-22.5
		c0-8.1-2.1-15.3-6.7-19.1l1.1-3.3c3.8,1.6,7.2,3.9,9.9,6.9c1.8-1.8,2.8-5.2,2.8-10.1h9.1c0,5.2-5.1,10.1-10.4,11.8
		c2.8,3.8,4.4,8.5,4.4,13.7C546.1,453.2,535.4,461,521.2,463z"/>
	<path class="st5" d="M690.9,477.7h-3l-51.9-42.4v42.4h-10.8v-96.2h25.3c17.9,0,33.4,8.1,33.4,26.1s-15.6,26-33.4,26h-2.6l-2.6-2
		h1.6c18,0,25.4-8.1,25.4-24s-7.4-24.1-25.4-24.1h-11v49.4L690.9,477.7z"/>
	<path class="st5" d="M716,446.6c0,14.2,4.4,30.1,20.9,30.1c14.1,0,19.8-11.9,19.8-11.9v5.4c0,0-6.3,8.5-20.8,8.5
		c-19.2,0-30.3-15.1-30.3-32.1c0-18,11.7-32.3,28.6-32.3c16.3,0,26.3,13.3,27.1,30.2h-38.5v-2H751c-0.8-14.1-4.2-26.2-16.7-26.2
		C721.7,416.3,716,429.3,716,446.6z"/>
	<path class="st5" d="M791.7,415.5l22.9,51.9l-5.1,11.8l-28-63.7H791.7z M818.2,459.1l-1.1-2.7l18.1-41h2.2L818.2,459.1z"/>
	<path class="st5" d="M869.6,391c3.2,0,5.8,2.6,5.8,5.8c0,3.2-2.6,5.8-5.8,5.8c-3.2,0-5.8-2.6-5.8-5.8
		C863.8,393.6,866.4,391,869.6,391z M864.6,415.5h9.9v62.2h-9.9V415.5z"/>
	<path class="st5" d="M912,415.5l22.9,51.9l-5.1,11.8l-28-63.7H912z M938.5,459.1l-1.1-2.7l18.1-41h2.2L938.5,459.1z"/>
	<path class="st5" d="M1012.7,432.6c-1.6,4.2-4.3,5.6-12.8,9.8c-10.3,5.1-15.2,9.6-15.2,19.6c0,8.3,4.2,14.7,12.1,14.7
		c5,0,9.2-2,12.3-5.2l0.7,1.5c-3.3,3.2-8.2,5.7-15.6,5.7c-11.2,0-19.8-5.7-19.8-16.8c0-12,10.1-16,25.3-21.8
		c12.5-4.7,12.6-7.7,12.6-12.8c0-5.5-1.4-11.1-10.9-11.1c-13,0-19.8,10-19.8,10V421c0,0,6.7-6.7,20.5-6.7
		c19.9,0,20.5,14.2,20.5,19.8v25.7c0,15.2,4.5,15.9,6.3,15.9c2.2,0,3.8-1.1,3.8-1.1v1.5c0,0-1.3,1.6-5.1,1.6
		c-7.6,0-14.9-6.9-14.9-22.5v-17.5C1012.8,436.1,1012.8,434,1012.7,432.6z"/>
	<path class="st5" d="M1060.2,381.5h9.9v96.2h-9.9V381.5z"/>
</g>
</svg>
