<svg xmlns="http://www.w3.org/2000/svg" viewBox="0 0 4.74 4.74"><title>instagram</title><path d="M298.28,420.52h1.1v2.32a.68.68,0,0,1-.68.68h-3.39a.68.68,0,0,1-.68-.68v-2.32h1.1a1.42,1.42,0,1,0,2.55,0Zm-2.33-.32h-1.31v-1a.45.45,0,0,1,.45-.45h3.83a.45.45,0,0,1,.45.45v1h-1.31a1.42,1.42,0,0,0-2.12,0Zm-.2-1.42v.95h.16v-.95Zm-.32,0v.95h.16v-.95Zm-.32,0v.95h.16v-.95Zm3.11.32a.11.11,0,0,0-.11.11v.56a.11.11,0,0,0,.11.11h.56a.11.11,0,0,0,.11-.11v-.56a.11.11,0,0,0-.11-.11ZM297,422.26a1.11,1.11,0,1,0-1.11-1.11A1.11,1.11,0,0,0,297,422.26Z" transform="translate(-294.64 -418.78)" fill="#939598"/></svg>