<svg xmlns="http://www.w3.org/2000/svg" xmlns:xlink="http://www.w3.org/1999/xlink" viewBox="0 0 124.65 55.05"><defs><linearGradient id="a" x1="286.3" y1="419.85" x2="362.26" y2="419.85" gradientTransform="matrix(0.98, -0.18, 0.18, 0.98, -103.59, 82.25)" gradientUnits="userSpaceOnUse"><stop offset="0.01" stop-color="#fff"/><stop offset="0.4" stop-color="#f8a11e"/><stop offset="0.41" stop-color="#f79b1e"/><stop offset="0.49" stop-color="#f47621"/><stop offset="0.58" stop-color="#f05823"/><stop offset="0.67" stop-color="#ee4025"/><stop offset="0.76" stop-color="#ec2f26"/><stop offset="0.87" stop-color="#eb2527"/><stop offset="1" stop-color="#eb2227"/></linearGradient><linearGradient id="b" x1="326.66" y1="411.86" x2="304.52" y2="448.23" gradientTransform="translate(-83.17 67.35) rotate(-13.86)" xlink:href="#a"/><linearGradient id="c" x1="324.05" y1="410.27" x2="301.9" y2="446.64" gradientTransform="translate(-83.17 67.35) rotate(-13.86)" xlink:href="#a"/><linearGradient id="d" x1="319.95" y1="407.77" x2="297.81" y2="444.15" gradientTransform="translate(-83.17 67.35) rotate(-13.86)" xlink:href="#a"/></defs><title>the-esthetique-logo</title><g style="isolation:isolate"><path d="M261.47,433.36a1.61,1.61,0,0,0-1.16-.42,2.07,2.07,0,0,0-1.87,2.26,1.4,1.4,0,0,0,.54,1.24l-.06.12a1.45,1.45,0,0,1-.93-1.4,2.31,2.31,0,0,1,2.32-2.3,2.27,2.27,0,0,1,1.19.3Zm-2.28,3.28,0-.09a1.2,1.2,0,0,0,.37.05,2.2,2.2,0,0,0,1.08-.24l.32-1.63h.41l-.3,1.54a2.79,2.79,0,0,1-1.51.4A1.92,1.92,0,0,1,259.19,436.64Z" transform="translate(-235.5 -389.96)" fill="#231f20" stroke="#231f20" stroke-miterlimit="10" stroke-width="0.22"/><path d="M265,433l-.37,1.88,1.77,1.72h-.11L264.62,435l-.32,1.63h-.41l.72-3.68h1c.6,0,1.11.24,1.11.86s-.69,1.14-1.49,1.14h-.14l-.08-.08h.19a1,1,0,0,0,1.09-1.13c0-.41-.16-.71-.73-.71Z" transform="translate(-235.5 -389.96)" fill="#231f20" stroke="#231f20" stroke-miterlimit="10" stroke-width="0.22"/><path d="M269.5,435.39h1.24v.08h-1.29l-.67,1.15h-.09l2.22-3.77.75,3.77h-.41l-.62-3.14Z" transform="translate(-235.5 -389.96)" fill="#231f20" stroke="#231f20" stroke-miterlimit="10" stroke-width="0.22"/><path d="M277.25,436.11l-.11.57L275,433.55l-.6,3.07h-.08l.73-3.74Zm.54-3.17h.08l-.54,2.77-.06-.09Z" transform="translate(-235.5 -389.96)" fill="#231f20" stroke="#231f20" stroke-miterlimit="10" stroke-width="0.22"/><path d="M280.67,436.62v-.08h.19a2,2,0,0,0,2-2.12,1.24,1.24,0,0,0-1.32-1.41h-.45l-.7,3.6H280l.72-3.68h.84a1.61,1.61,0,0,1,1.77,1.55,2.29,2.29,0,0,1-2.48,2.13Z" transform="translate(-235.5 -389.96)" fill="#231f20" stroke="#231f20" stroke-miterlimit="10" stroke-width="0.22"/><path d="M286.05,436.62h-.41l.72-3.68h2V433h-1.61Zm.26,0v-.08h1.35v.08Zm.36-1.84v-.08h1.09v.08Z" transform="translate(-235.5 -389.96)" fill="#231f20" stroke="#231f20" stroke-miterlimit="10" stroke-width="0.22"/><path d="M293.3,435.13a2,2,0,0,1-.6,1.23,1.34,1.34,0,0,1-.94.33,1,1,0,0,1-1.11-1.08,4.11,4.11,0,0,1,.09-.75l.37-1.9h.41l-.4,2.05a4.86,4.86,0,0,0-.1.83.69.69,0,0,0,.75.78,1.31,1.31,0,0,0,.88-.31,2,2,0,0,0,.57-1.18l.43-2.18h.08Z" transform="translate(-235.5 -389.96)" fill="#231f20" stroke="#231f20" stroke-miterlimit="10" stroke-width="0.22"/><path d="M296.92,433l-.37,1.88,1.77,1.72h-.11L296.54,435l-.32,1.63h-.41l.72-3.68h1c.6,0,1.11.24,1.11.86s-.69,1.14-1.49,1.14H297l-.08-.08h.19a1,1,0,0,0,1.09-1.13c0-.41-.16-.71-.73-.71Z" transform="translate(-235.5 -389.96)" fill="#231f20" stroke="#231f20" stroke-miterlimit="10" stroke-width="0.22"/><path d="M326.38,425.12C303.79,441,281.26,448.44,251.69,439c.11.55,38.55,20,74.69-13.84Z" transform="translate(-235.5 -389.96)" fill-rule="evenodd" opacity="0.79" fill="url(#a)" style="mix-blend-mode:multiply"/><path d="M314,412.34s-.61-8.22,17.3-10.53c8.24-.78,9.55-4.12,10.76-6.25-4.31,10.49-5.15,15.49-16.8,14.87S314.33,411.42,314,412.34Z" transform="translate(-235.5 -389.96)" fill="#fff"/><path d="M313.71,412.74s.6-11.48,15.47-16.45c5.23-1.89,5.65-1.77,7.5-3.34-3.12,3.44-3.84,4.84-4.27,7s-2.39,7.12-12,8C316.29,408.23,313.71,412.74,313.71,412.74Z" transform="translate(-235.5 -389.96)" fill="#fff"/><path d="M313.4,413.32s-.49-4.51-.9-8.94,5.27-13.85,19.09-14.43c-2.9,1.83-3.4,8.92-10.25,12.66A16,16,0,0,0,313.4,413.32Z" transform="translate(-235.5 -389.96)" fill="#fff"/><g opacity="0.79" style="mix-blend-mode:multiply"><path d="M314,412.34s-.61-8.22,17.3-10.53c8.24-.78,9.55-4.12,10.76-6.25-4.31,10.49-5.15,15.49-16.8,14.87S314.33,411.42,314,412.34Z" transform="translate(-235.5 -389.96)" opacity="0.79" fill="url(#b)" style="mix-blend-mode:multiply"/><path d="M313.71,412.74s.6-11.48,15.47-16.45c5.23-1.89,5.65-1.77,7.5-3.34-3.12,3.44-3.84,4.84-4.27,7s-2.39,7.12-12,8C316.29,408.23,313.71,412.74,313.71,412.74Z" transform="translate(-235.5 -389.96)" opacity="0.79" fill="url(#c)" style="mix-blend-mode:multiply"/><path d="M313.4,413.32s-.49-4.51-.9-8.94,5.27-13.85,19.09-14.43c-2.9,1.83-3.4,8.92-10.25,12.66A16,16,0,0,0,313.4,413.32Z" transform="translate(-235.5 -389.96)" opacity="0.79" fill="url(#d)" style="mix-blend-mode:multiply"/></g><path d="M304.54,399.87a3.93,3.93,0,0,1,2.62,2,5.77,5.77,0,0,1,.4,4.72,7.56,7.56,0,0,1-6.18,5.22,9.93,9.93,0,0,1-6-1c-1.31-.6-2.55-1.34-3.85-2-.91-.44-1.87-.79-2.81-1.15a2.91,2.91,0,0,0-.75-.08,6,6,0,0,1-.27,1.09,1.52,1.52,0,0,1-.58.68.74.74,0,0,1-.93-.18.85.85,0,0,1-.1-1,1.31,1.31,0,0,1,1-.73c.3-.06.36-.18.31-.46a3.49,3.49,0,0,0-3-2.75,5.86,5.86,0,0,0-6.11,3,15,15,0,0,0-1.86,5.28l-1.15,6c0,.09,0,.19,0,.38.36-.5.64-.94,1-1.34a8.12,8.12,0,0,1,4.25-3.09,4.88,4.88,0,0,1,3.63.36,2.78,2.78,0,0,1,1.44,3q-.83,4.72-1.65,9.44a2.71,2.71,0,0,0,0,.51.85.85,0,0,0,.6.91,1.05,1.05,0,0,0,1.09-.48c.1-.16.17-.34.26-.51l.14.07a4.24,4.24,0,0,1-.41.76,2.19,2.19,0,0,1-2.76.23,1.66,1.66,0,0,1-.5-1.67c.51-3,1.05-6,1.54-8.94a5.52,5.52,0,0,0,0-1.89,2.29,2.29,0,0,0-2.9-1.66,6.24,6.24,0,0,0-3,1.49,10.88,10.88,0,0,0-2.73,3.39,6,6,0,0,0-.4,1.59q-.7,3.73-1.38,7.46c-.07.39-.24.56-.65.52s-.67,0-1.09,0c.12-.68.22-1.3.34-1.91.73-3.9,1.44-7.81,2.2-11.7a32.85,32.85,0,0,1,1.26-5.57,8.78,8.78,0,0,1,4.47-5.2,6.6,6.6,0,0,1,5.51-.29,3.66,3.66,0,0,1,2.39,2.9,5.65,5.65,0,0,1,1.16.13c1.31.43,2.63.85,3.91,1.37a17.66,17.66,0,0,0,7.09,1.47,8.63,8.63,0,0,0,6.24-2.63,4.81,4.81,0,0,0,1.35-2.55,3.19,3.19,0,0,0-2.09-3.57,6.29,6.29,0,0,0-1.15-.26c-.38-.06-.81,0-.92-.49s.19-.76.58-1Z" transform="translate(-235.5 -389.96)"/><path d="M241.54,416.6a.24.24,0,0,0-.25.22l-2.08,11.79c0,.16,0,.22.19.22h8.42c1.26,0,2.77-1.54,3.09-3.18l.09-.5h.25l-.69,3.94H235.62c-.16,0-.16-.25.06-.25h1.48a.26.26,0,0,0,.25-.22l3.69-20.94c0-.16,0-.22-.19-.22h-1.48c-.16,0-.16-.25.06-.25h13.65l-.66,3.69h-.28l.09-.5a2.29,2.29,0,0,0-2.52-2.93h-6.62a.24.24,0,0,0-.25.22l-1.48,8.45c0,.16,0,.22.19.22h4.82a2.67,2.67,0,0,0,2.77-2v-.09h.28l-.82,4.54h-.28l.06-.22c.25-1.29-.85-1.92-2.08-1.92Z" transform="translate(-235.5 -389.96)"/><path d="M267.55,427.26c-.13.73.09,1.48,1.1,1.48a1.05,1.05,0,0,0,1.1-1c0-.19.25-.16.22,0a1.93,1.93,0,0,1-2,1.42c-1.58,0-2.24-.82-2-2.3l1.86-10.66c.13-.79-.28-1.26-.85-1.26h-.28a4.67,4.67,0,0,0-2.9,1,2.73,2.73,0,0,1,.5,2.43c-.28,1.26-1.64.91-1.64.16a4,4,0,0,1,.32-1.92c-.25-1.17-1.42-2.08-3.59-2.08-1.48,0-3.91.54-3.78,2.71.16,3.28,8.26,3,8.26,7.25,0,2.9-3,5-6,4.92-4,0-5.68-2.33-5.23-4.64.32-1.64,2.21-1,1.7.13-.69,1.7.16,4.19,3.56,4.23,2,0,4.35-1.42,4.35-3.72,0-3.94-7.38-3.34-8-7.25,0-2.71,2.59-3.85,5.17-3.85a5.75,5.75,0,0,1,4.26,1.45,5.47,5.47,0,0,1,3.18-1h1.23l.41-2.14c0-.16.09-.22.25-.22h1.2c.16,0,.22.06.19.22l-.41,2.14h1.89c.16,0,.19.22,0,.22H269.7Z" transform="translate(-235.5 -389.96)"/><path d="M288,424c.09-6.62,5.23-9.59,8.77-9.59,3.06,0,4.7,1.36,4.64,3.18s-2,3.72-4.82,4.45c-3.28.95-6.18,1.39-6.87,3.25.25,2.3,1.32,3.82,3.91,3.82a4.52,4.52,0,0,0,4.79-4.26,4.18,4.18,0,0,1,0-.63.81.81,0,0,1,.85-.88.84.84,0,0,1,.85.95c0,2.43-2.9,5.11-6.72,5.11S287.89,427.1,288,424Zm11.79-6.68c.06-1.54-.79-2.71-3.06-2.71-2.84,0-7,2.52-7.06,9.27,0,.38,0,.73,0,1.07,1.48-3.12,9.08-1.77,10-6.65A5.39,5.39,0,0,0,299.74,417.32Z" transform="translate(-235.5 -389.96)"/><path d="M304.34,427.26c-.13.69.09,1.48,1.1,1.48a1.05,1.05,0,0,0,1.1-1c0-.19.25-.16.22,0a1.93,1.93,0,0,1-2,1.42c-1.58,0-2.24-.79-2-2.3l1.89-10.75c.16-.85-.38-1.17-1-1.17-.16,0-.16-.22,0-.22h1.2l.41-2.14c0-.16.09-.22.25-.22h1.2c.16,0,.22.06.19.22l-.41,2.14h1.89c.16,0,.19.22,0,.22h-1.89Z" transform="translate(-235.5 -389.96)"/><path d="M311.06,427.41c-.13.73.13,1.32.76,1.32a1.08,1.08,0,0,0,1.1-.91c0-.13.22-.09.19,0a1.78,1.78,0,0,1-1.92,1.32,1.6,1.6,0,0,1-1.7-2.08l1.86-10.5c.19-1.14-.38-1.67-1.23-1.67a1.44,1.44,0,0,0-.76.25c-.16.09-.22-.13-.09-.19a3.41,3.41,0,0,1,1.42-.38c1.61,0,2.49.95,2.24,2.33Z" transform="translate(-235.5 -389.96)"/><path d="M328.59,414.68c.16,0,.22.06.19.22L325,436.46c0,.22,0,.32.25.32h.95c.13,0,.13.19,0,.19h-4.19c-.13,0-.13-.19,0-.19h.95a.33.33,0,0,0,.38-.32l2.36-13.34c-1.39,3.18-3.63,6.15-6.43,6.15-2.33,0-5.3-1.1-4.13-7,.91-5.11,5.3-8.42,9.59-7.63l2.4.47.06-.25c0-.16.09-.22.25-.22Zm-2.81,7.73,1.26-7-2.3-.44c-4.26-.88-7,2.71-8,7.38-1.23,5.93,1.26,6.68,2.62,6.68C322.25,429,324.46,425.71,325.78,422.4Z" transform="translate(-235.5 -389.96)"/><path d="M332.85,425.08c-.54,2.93,1,3.94,2.36,3.94,2.77,0,5.27-3.28,6.78-6.91l1.29-7.22c0-.16.09-.22.25-.22h1.2c.16,0,.22.06.19.22l-2.24,12.52c-.13.69.13,1.32.76,1.32a1.08,1.08,0,0,0,1.1-.91c0-.13.22-.06.19.06a1.76,1.76,0,0,1-1.92,1.29,1.62,1.62,0,0,1-1.7-2.08l.76-4.29c-1.61,3.53-4,6.53-6.87,6.53-2.36,0-4.29-1.48-3.63-5.14l1.42-7.6c.22-1.14-.38-1.67-1.23-1.67a1.44,1.44,0,0,0-.76.25c-.16.09-.22-.13-.09-.19a3.41,3.41,0,0,1,1.42-.38c1.61,0,2.52.82,2.24,2.33Z" transform="translate(-235.5 -389.96)"/><path d="M346.75,424c.09-6.62,5.23-9.59,8.77-9.59,3.06,0,4.7,1.36,4.64,3.18s-2,3.72-4.82,4.45c-3.28.95-6.18,1.39-6.87,3.25.25,2.3,1.32,3.82,3.91,3.82a4.52,4.52,0,0,0,4.79-4.26,4.18,4.18,0,0,1,0-.63.81.81,0,0,1,.85-.88.84.84,0,0,1,.85.95c0,2.43-2.9,5.11-6.72,5.11S346.69,427.1,346.75,424Zm11.79-6.68c.06-1.54-.79-2.71-3.06-2.71-2.84,0-7,2.52-7.06,9.27,0,.38,0,.73,0,1.07,1.48-3.12,9.08-1.77,10-6.65A5.39,5.39,0,0,0,358.54,417.32Z" transform="translate(-235.5 -389.96)"/></g></svg>