<svg xmlns="http://www.w3.org/2000/svg" viewBox="0 0 4.83 3.95"><title>twitter</title><path d="M298.34,419.33a1,1,0,0,0-.68,1v.17l-.17,0a2.83,2.83,0,0,1-1.66-.81l-.23-.23-.06.17a1,1,0,0,0,.22,1c.14.15.11.17-.13.08-.08,0-.16,0-.16,0a1.23,1.23,0,0,0,.13.47,1.12,1.12,0,0,0,.48.45l.17.08H296c-.2,0-.2,0-.18.08a1.06,1.06,0,0,0,.65.57l.22.07-.19.11a2,2,0,0,1-.94.26,1,1,0,0,0-.29,0,2.68,2.68,0,0,0,.67.31,3,3,0,0,0,2.29-.26,3,3,0,0,0,1.16-1.35,3.6,3.6,0,0,0,.24-1c0-.16,0-.18.21-.37a2.28,2.28,0,0,0,.24-.27c0-.07,0-.07-.15,0s-.34.09-.19-.07a1,1,0,0,0,.24-.37s-.05,0-.11,0a1.92,1.92,0,0,1-.31.12l-.19.06-.17-.12a1.44,1.44,0,0,0-.3-.15,1.2,1.2,0,0,0-.61,0h0Z" transform="translate(-295.32 -419.28)" fill="#939598"/></svg>